ply
format ascii 1.0
comment Created by Blender 2.69 (sub 0) - www.blender.org, source file: ''
element vertex 192
property float x
property float y
property float z
property float nx
property float ny
property float nz
element face 92
property list uchar uint vertex_indices
end_header
0.000000 0.005000 -0.075000 0.098017 0.995185 0.000000
0.000000 0.005000 0.075000 0.098017 0.995185 0.000000
0.000975 0.004904 0.075000 0.098017 0.995185 0.000000
0.000975 0.004904 -0.075000 0.098017 0.995185 0.000000
0.000975 0.004904 -0.075000 0.290285 0.956940 0.000000
0.000975 0.004904 0.075000 0.290285 0.956940 0.000000
0.001913 0.004619 0.075000 0.290285 0.956940 0.000000
0.001913 0.004619 -0.075000 0.290285 0.956940 0.000000
0.001913 0.004619 -0.075000 0.471396 0.881921 0.000000
0.001913 0.004619 0.075000 0.471396 0.881921 0.000000
0.002778 0.004157 0.075000 0.471396 0.881921 0.000000
0.002778 0.004157 -0.075000 0.471396 0.881921 0.000000
0.002778 0.004157 -0.075000 0.634393 0.773010 0.000000
0.002778 0.004157 0.075000 0.634393 0.773010 0.000000
0.003536 0.003536 0.075000 0.634393 0.773010 0.000000
0.003536 0.003536 -0.075000 0.634393 0.773010 0.000000
0.003536 0.003536 -0.075000 0.773010 0.634393 0.000000
0.003536 0.003536 0.075000 0.773010 0.634393 0.000000
0.004157 0.002778 0.075000 0.773010 0.634393 0.000000
0.004157 0.002778 -0.075000 0.773010 0.634393 0.000000
0.004157 0.002778 -0.075000 0.881921 0.471396 0.000000
0.004157 0.002778 0.075000 0.881921 0.471396 0.000000
0.004619 0.001913 0.075000 0.881921 0.471396 0.000000
0.004619 0.001913 -0.075000 0.881921 0.471396 0.000000
0.004619 0.001913 -0.075000 0.956940 0.290285 0.000000
0.004619 0.001913 0.075000 0.956940 0.290285 0.000000
0.004904 0.000975 0.075000 0.956940 0.290285 0.000000
0.004904 0.000975 -0.075000 0.956940 0.290285 0.000000
0.004904 0.000975 -0.075000 0.995185 0.098017 0.000000
0.004904 0.000975 0.075000 0.995185 0.098017 0.000000
0.005000 0.000000 0.075000 0.995185 0.098017 0.000000
0.005000 0.000000 -0.075000 0.995185 0.098017 0.000000
0.005000 0.000000 -0.075000 0.995185 -0.098017 0.000000
0.005000 0.000000 0.075000 0.995185 -0.098017 0.000000
0.004904 -0.000975 0.075000 0.995185 -0.098017 0.000000
0.004904 -0.000975 -0.075000 0.995185 -0.098017 0.000000
0.004904 -0.000975 -0.075000 0.956940 -0.290285 0.000000
0.004904 -0.000975 0.075000 0.956940 -0.290285 0.000000
0.004619 -0.001913 0.075000 0.956940 -0.290285 0.000000
0.004619 -0.001913 -0.075000 0.956940 -0.290285 0.000000
0.004619 -0.001913 -0.075000 0.881921 -0.471397 0.000000
0.004619 -0.001913 0.075000 0.881921 -0.471397 0.000000
0.004157 -0.002778 0.075000 0.881921 -0.471397 0.000000
0.004157 -0.002778 -0.075000 0.881921 -0.471397 0.000000
0.004157 -0.002778 -0.075000 0.773010 -0.634393 0.000000
0.004157 -0.002778 0.075000 0.773010 -0.634393 0.000000
0.003536 -0.003536 0.075000 0.773010 -0.634393 0.000000
0.003536 -0.003536 -0.075000 0.773010 -0.634393 0.000000
0.003536 -0.003536 -0.075000 0.634393 -0.773010 0.000000
0.003536 -0.003536 0.075000 0.634393 -0.773010 0.000000
0.002778 -0.004157 0.075000 0.634393 -0.773010 0.000000
0.002778 -0.004157 -0.075000 0.634393 -0.773010 0.000000
0.002778 -0.004157 -0.075000 0.471397 -0.881921 0.000000
0.002778 -0.004157 0.075000 0.471397 -0.881921 0.000000
0.001913 -0.004619 0.075000 0.471397 -0.881921 0.000000
0.001913 -0.004619 -0.075000 0.471397 -0.881921 0.000000
0.001913 -0.004619 -0.075000 0.290284 -0.956940 0.000000
0.001913 -0.004619 0.075000 0.290284 -0.956940 0.000000
0.000975 -0.004904 0.075000 0.290284 -0.956940 0.000000
0.000975 -0.004904 -0.075000 0.290284 -0.956940 0.000000
0.000975 -0.004904 -0.075000 0.098017 -0.995185 0.000000
0.000975 -0.004904 0.075000 0.098017 -0.995185 0.000000
-0.000000 -0.005000 0.075000 0.098017 -0.995185 0.000000
-0.000000 -0.005000 -0.075000 0.098017 -0.995185 0.000000
-0.000000 -0.005000 -0.075000 -0.098017 -0.995185 0.000000
-0.000000 -0.005000 0.075000 -0.098017 -0.995185 0.000000
-0.000975 -0.004904 0.075000 -0.098017 -0.995185 0.000000
-0.000975 -0.004904 -0.075000 -0.098017 -0.995185 0.000000
-0.000975 -0.004904 -0.075000 -0.290286 -0.956940 0.000000
-0.000975 -0.004904 0.075000 -0.290286 -0.956940 0.000000
-0.001913 -0.004619 0.075000 -0.290286 -0.956940 0.000000
-0.001913 -0.004619 -0.075000 -0.290286 -0.956940 0.000000
-0.001913 -0.004619 -0.075000 -0.471397 -0.881921 0.000000
-0.001913 -0.004619 0.075000 -0.471397 -0.881921 0.000000
-0.002778 -0.004157 0.075000 -0.471397 -0.881921 0.000000
-0.002778 -0.004157 -0.075000 -0.471397 -0.881921 0.000000
-0.002778 -0.004157 -0.075000 -0.634394 -0.773010 0.000000
-0.002778 -0.004157 0.075000 -0.634394 -0.773010 0.000000
-0.003536 -0.003536 0.075000 -0.634394 -0.773010 0.000000
-0.003536 -0.003536 -0.075000 -0.634394 -0.773010 0.000000
-0.003536 -0.003536 -0.075000 -0.773011 -0.634393 0.000000
-0.003536 -0.003536 0.075000 -0.773011 -0.634393 0.000000
-0.004157 -0.002778 0.075000 -0.773011 -0.634393 0.000000
-0.004157 -0.002778 -0.075000 -0.773011 -0.634393 0.000000
-0.004157 -0.002778 -0.075000 -0.881922 -0.471396 0.000000
-0.004157 -0.002778 0.075000 -0.881922 -0.471396 0.000000
-0.004619 -0.001913 0.075000 -0.881922 -0.471396 0.000000
-0.004619 -0.001913 -0.075000 -0.881922 -0.471396 0.000000
-0.004619 -0.001913 -0.075000 -0.956941 -0.290284 0.000000
-0.004619 -0.001913 0.075000 -0.956941 -0.290284 0.000000
-0.004904 -0.000975 0.075000 -0.956941 -0.290284 0.000000
-0.004904 -0.000975 -0.075000 -0.956941 -0.290284 0.000000
-0.004904 -0.000975 -0.075000 -0.995185 -0.098016 0.000000
-0.004904 -0.000975 0.075000 -0.995185 -0.098016 0.000000
-0.005000 0.000000 0.075000 -0.995185 -0.098016 0.000000
-0.005000 0.000000 -0.075000 -0.995185 -0.098016 0.000000
-0.005000 0.000000 -0.075000 -0.995185 0.098018 0.000000
-0.005000 0.000000 0.075000 -0.995185 0.098018 0.000000
-0.004904 0.000975 0.075000 -0.995185 0.098018 0.000000
-0.004904 0.000975 -0.075000 -0.995185 0.098018 0.000000
-0.004904 0.000975 -0.075000 -0.956940 0.290286 0.000000
-0.004904 0.000975 0.075000 -0.956940 0.290286 0.000000
-0.004619 0.001913 0.075000 -0.956940 0.290286 0.000000
-0.004619 0.001913 -0.075000 -0.956940 0.290286 0.000000
-0.004619 0.001913 -0.075000 -0.881921 0.471397 0.000000
-0.004619 0.001913 0.075000 -0.881921 0.471397 0.000000
-0.004157 0.002778 0.075000 -0.881921 0.471397 0.000000
-0.004157 0.002778 -0.075000 -0.881921 0.471397 0.000000
-0.004157 0.002778 -0.075000 -0.773009 0.634395 0.000000
-0.004157 0.002778 0.075000 -0.773009 0.634395 0.000000
-0.003536 0.003536 0.075000 -0.773009 0.634395 0.000000
-0.003536 0.003536 -0.075000 -0.773009 0.634395 0.000000
-0.003536 0.003536 -0.075000 -0.634392 0.773011 0.000000
-0.003536 0.003536 0.075000 -0.634392 0.773011 0.000000
-0.002778 0.004157 0.075000 -0.634392 0.773011 0.000000
-0.002778 0.004157 -0.075000 -0.634392 0.773011 0.000000
-0.002778 0.004157 -0.075000 -0.471396 0.881922 0.000000
-0.002778 0.004157 0.075000 -0.471396 0.881922 0.000000
-0.001913 0.004619 0.075000 -0.471396 0.881922 0.000000
-0.001913 0.004619 -0.075000 -0.471396 0.881922 0.000000
0.000975 0.004904 0.075000 -0.000000 0.000000 1.000000
0.000000 0.005000 0.075000 -0.000000 0.000000 1.000000
-0.000975 0.004904 0.075000 -0.000000 0.000000 1.000000
-0.001913 0.004619 0.075000 -0.000000 0.000000 1.000000
0.001913 0.004619 0.075000 0.000000 -0.000000 1.000000
-0.002778 0.004157 0.075000 0.000000 -0.000000 1.000000
0.002778 0.004157 0.075000 0.000000 0.000000 1.000000
-0.003536 0.003536 0.075000 0.000000 -0.000000 1.000000
0.003536 0.003536 0.075000 0.000000 0.000000 1.000000
-0.004157 0.002778 0.075000 0.000000 -0.000000 1.000000
0.004157 0.002778 0.075000 0.000000 0.000000 1.000000
-0.004619 0.001913 0.075000 0.000000 -0.000000 1.000000
0.004619 0.001913 0.075000 0.000000 0.000000 1.000000
-0.004904 0.000975 0.075000 0.000000 -0.000000 1.000000
0.004904 0.000975 0.075000 0.000000 0.000000 1.000000
-0.005000 0.000000 0.075000 0.000000 -0.000000 1.000000
0.005000 0.000000 0.075000 0.000000 0.000000 1.000000
-0.004904 -0.000975 0.075000 0.000000 0.000000 1.000000
0.004904 -0.000975 0.075000 0.000000 0.000000 1.000000
-0.004619 -0.001913 0.075000 0.000000 0.000000 1.000000
0.004619 -0.001913 0.075000 0.000000 0.000000 1.000000
-0.004157 -0.002778 0.075000 0.000000 0.000000 1.000000
0.004157 -0.002778 0.075000 0.000000 0.000000 1.000000
-0.003536 -0.003536 0.075000 0.000000 0.000000 1.000000
0.003536 -0.003536 0.075000 0.000000 0.000000 1.000000
-0.002778 -0.004157 0.075000 0.000000 0.000000 1.000000
0.002778 -0.004157 0.075000 0.000000 0.000000 1.000000
-0.001913 -0.004619 0.075000 0.000000 0.000000 1.000000
0.001913 -0.004619 0.075000 0.000000 0.000000 1.000000
-0.000975 -0.004904 0.075000 0.000000 0.000000 1.000000
0.000975 -0.004904 0.075000 0.000000 0.000000 1.000000
-0.000000 -0.005000 0.075000 0.000000 0.000000 1.000000
0.000000 0.005000 0.075000 -0.098017 0.995185 0.000000
0.000000 0.005000 -0.075000 -0.098017 0.995185 0.000000
-0.000975 0.004904 -0.075000 -0.098017 0.995185 0.000000
-0.000975 0.004904 0.075000 -0.098017 0.995185 0.000000
-0.001913 0.004619 -0.075000 -0.290283 0.956941 0.000000
-0.001913 0.004619 0.075000 -0.290283 0.956941 0.000000
-0.000975 0.004904 0.075000 -0.290283 0.956941 0.000000
-0.000975 0.004904 -0.075000 -0.290283 0.956941 0.000000
0.000000 0.005000 -0.075000 0.000000 0.000000 -1.000000
0.000975 0.004904 -0.075000 0.000000 0.000000 -1.000000
-0.000975 0.004904 -0.075000 0.000000 0.000000 -1.000000
-0.001913 0.004619 -0.075000 0.000000 -0.000000 -1.000000
0.001913 0.004619 -0.075000 0.000000 0.000000 -1.000000
-0.002778 0.004157 -0.075000 0.000000 -0.000000 -1.000000
0.002778 0.004157 -0.075000 0.000000 0.000000 -1.000000
-0.003536 0.003536 -0.075000 0.000000 -0.000000 -1.000000
0.003536 0.003536 -0.075000 0.000000 0.000000 -1.000000
-0.004157 0.002778 -0.075000 0.000000 -0.000000 -1.000000
0.004157 0.002778 -0.075000 0.000000 0.000000 -1.000000
-0.004619 0.001913 -0.075000 0.000000 -0.000000 -1.000000
0.004619 0.001913 -0.075000 0.000000 0.000000 -1.000000
-0.004904 0.000975 -0.075000 0.000000 -0.000000 -1.000000
0.004904 0.000975 -0.075000 0.000000 0.000000 -1.000000
-0.005000 0.000000 -0.075000 0.000000 -0.000000 -1.000000
0.005000 0.000000 -0.075000 0.000000 0.000000 -1.000000
-0.004904 -0.000975 -0.075000 0.000000 0.000000 -1.000000
0.004904 -0.000975 -0.075000 0.000000 0.000000 -1.000000
-0.004619 -0.001913 -0.075000 0.000000 0.000000 -1.000000
0.004619 -0.001913 -0.075000 0.000000 0.000000 -1.000000
-0.004157 -0.002778 -0.075000 0.000000 0.000000 -1.000000
0.004157 -0.002778 -0.075000 0.000000 0.000000 -1.000000
-0.003536 -0.003536 -0.075000 0.000000 0.000000 -1.000000
0.003536 -0.003536 -0.075000 0.000000 0.000000 -1.000000
-0.002778 -0.004157 -0.075000 0.000000 0.000000 -1.000000
0.002778 -0.004157 -0.075000 0.000000 0.000000 -1.000000
-0.001913 -0.004619 -0.075000 0.000000 0.000000 -1.000000
0.001913 -0.004619 -0.075000 0.000000 0.000000 -1.000000
-0.000975 -0.004904 -0.075000 0.000000 0.000000 -1.000000
0.000975 -0.004904 -0.075000 0.000000 0.000000 -1.000000
-0.000000 -0.005000 -0.075000 0.000000 0.000000 -1.000000
4 0 1 2 3
4 4 5 6 7
4 8 9 10 11
4 12 13 14 15
4 16 17 18 19
4 20 21 22 23
4 24 25 26 27
4 28 29 30 31
4 32 33 34 35
4 36 37 38 39
4 40 41 42 43
4 44 45 46 47
4 48 49 50 51
4 52 53 54 55
4 56 57 58 59
4 60 61 62 63
4 64 65 66 67
4 68 69 70 71
4 72 73 74 75
4 76 77 78 79
4 80 81 82 83
4 84 85 86 87
4 88 89 90 91
4 92 93 94 95
4 96 97 98 99
4 100 101 102 103
4 104 105 106 107
4 108 109 110 111
4 112 113 114 115
4 116 117 118 119
3 120 121 122
3 120 122 123
3 120 123 124
3 123 125 124
3 125 126 124
3 125 127 126
3 127 128 126
3 127 129 128
3 129 130 128
3 129 131 130
3 131 132 130
3 131 133 132
3 133 134 132
3 133 135 134
3 135 136 134
3 135 137 136
3 137 138 136
3 137 139 138
3 139 140 138
3 139 141 140
3 141 142 140
3 141 143 142
3 143 144 142
3 143 145 144
3 145 146 144
3 145 147 146
3 147 148 146
3 147 149 148
3 149 150 148
3 149 151 150
4 152 153 154 155
4 156 157 158 159
3 160 161 162
3 161 163 162
3 161 164 163
3 164 165 163
3 164 166 165
3 166 167 165
3 166 168 167
3 168 169 167
3 168 170 169
3 170 171 169
3 170 172 171
3 172 173 171
3 172 174 173
3 174 175 173
3 174 176 175
3 176 177 175
3 176 178 177
3 178 179 177
3 178 180 179
3 180 181 179
3 180 182 181
3 182 183 181
3 182 184 183
3 184 185 183
3 184 186 185
3 186 187 185
3 186 188 187
3 188 189 187
3 188 190 189
3 190 191 189
